<svg xmlns="http://www.w3.org/2000/svg" width="60" height="60"><path style="stroke:none;fill-rule:nonzero;fill:#5b6ceb;fill-opacity:1" d="M6 14a1.988 1.988 0 0 0-1.754.992 1.982 1.982 0 0 0 0 2.016A1.988 1.988 0 0 0 6 18h48a1.988 1.988 0 0 0 1.754-.992 1.982 1.982 0 0 0 0-2.016A1.988 1.988 0 0 0 54 14Zm0 14a1.988 1.988 0 0 0-1.754.992 1.982 1.982 0 0 0 0 2.016A1.988 1.988 0 0 0 6 32h48a1.988 1.988 0 0 0 1.754-.992 1.982 1.982 0 0 0 0-2.016A1.988 1.988 0 0 0 54 28Zm0 14a1.988 1.988 0 0 0-1.754.992 1.982 1.982 0 0 0 0 2.016A1.988 1.988 0 0 0 6 46h48a1.988 1.988 0 0 0 1.754-.992 1.982 1.982 0 0 0 0-2.016A1.988 1.988 0 0 0 54 42Zm0 0"/></svg>