<svg id="Компонент_1_1" data-name="Компонент 1 – 1" xmlns="http://www.w3.org/2000/svg" xmlns:xlink="http://www.w3.org/1999/xlink" width="70" height="70" viewBox="0 0 70 70">
  <defs>
    <clipPath id="clip-path">
      <rect id="crop" width="48" height="53" transform="translate(0 7.291)" fill="none"/>
    </clipPath>
  </defs>
  <g id="Ellipse_2" data-name="Ellipse 2" fill="none" stroke="#fff" stroke-width="2">
    <circle cx="35" cy="35" r="35" stroke="none"/>
    <circle cx="35" cy="35" r="34" fill="none"/>
  </g>
  <g id="Vector_Smart_Object" data-name="Vector Smart Object" transform="translate(-1073 -3100)">
    <g id="Vector_Smart_Object-2" data-name="Vector Smart Object" transform="translate(1085 3100.709)" clip-path="url(#clip-path)">
      <g id="Сгруппировать_1" data-name="Сгруппировать 1">
        <path id="Контур_1" data-name="Контур 1" d="M19.716,60.291a2.752,2.752,0,0,1-.786-.113A1.668,1.668,0,0,1,18,57.456a3.819,3.819,0,0,0,.459-2.865c-.039-.306-.081-.612-.122-.917-.137-1.012-.279-2.058-.337-3.113-.073-1.313-.087-2.7-.042-4.243.006-.2.015-.4.024-.6a12.072,12.072,0,0,0,.008-1.5c-.039-.487-.11-.966-.186-1.474-.027-.185-.055-.369-.081-.554-.137-.979-.229-1.974-.317-2.937-.039-.421-.077-.841-.119-1.26-.064-.626-.137-1.263-.208-1.88-.069-.6-.141-1.222-.2-1.837-.142-1.4-.208-2.826-.272-4.2l-.029-.614c-.02-.413-.036-.827-.053-1.24-.039-.967-.079-1.967-.161-2.939-.007-.089-.014-.182-.021-.276a3,3,0,0,0-.5-1.832,1.382,1.382,0,0,0-.822-.328c-.3-.027-.605-.05-.908-.072-.354-.026-.719-.053-1.082-.088-.2-.019-.4-.04-.6-.062a18.861,18.861,0,0,0-1.95-.139c-.164,0-.322,0-.472.014-.53.033-1.072.095-1.55.149-.65.074-1.3.151-1.948.229-.864.1-1.757.211-2.639.306-.229.025-.462.053-.7.082a17.775,17.775,0,0,1-2.159.176,7.245,7.245,0,0,1-.831-.045,1.474,1.474,0,0,1-1.054-.525,1.192,1.192,0,0,1-.157-1.008c.277-1.172,1.551-1.434,2.395-1.607.161-.033.313-.064.438-.1,1.352-.353,2.751-.718,4.176-1.04l.328-.075a18.261,18.261,0,0,1,2.13-.4c1.033-.111,2.082-.181,3.1-.248l1.671-.113c1.148-.077,2.334-.157,3.5-.254l.2-.017c.382-.031.815-.067,1.133-.113.049-.007.092-.013.134-.02a.778.778,0,0,1,.162-.043,1.191,1.191,0,0,1,.255-.027,2.958,2.958,0,0,1,1.042.269c.094.037.192.076.242.09a4.885,4.885,0,0,0,1.292.242,1.954,1.954,0,0,0,.228-.013A8.453,8.453,0,0,0,22.6,18.13a7.706,7.706,0,0,1,1.679-.321c1.138-.065,2.294-.1,3.411-.134q.75-.023,1.5-.048c.3-.011.615-.029.917-.047.492-.029,1-.059,1.511-.059.359,0,.682.015.989.045,1.607.159,3.282.355,5.119.6.212.028.429.051.659.076a10.544,10.544,0,0,1,2,.344c.969.3,1.088.922,1.073,1.265a1.175,1.175,0,0,1-.612.983,3.1,3.1,0,0,1-.958.26l-.075.012c-.563.089-1.118.154-1.634.211-1.58.177-3.188.324-4.742.467-1.512.139-3.076.282-4.607.452-.537.059-1.16.129-1.761.221l-.078.012c-.631.094-1.058.179-1.23.489a3.252,3.252,0,0,0-.278,1.082c-.019.127-.037.253-.059.377l-.02.112a11.864,11.864,0,0,0-.228,1.866,16.8,16.8,0,0,0,.377,3.445l.941.094q1.47.147,2.936.289a63.563,63.563,0,0,1,7,1.1,45.262,45.262,0,0,1,4.714,1.175,11.433,11.433,0,0,1,1.3.54c.166.077.332.154.5.229a15.493,15.493,0,0,0,2.811.831l.315.072q.041.008.083.02a1.034,1.034,0,0,1,.128.041A2.854,2.854,0,0,1,47.9,35.74a1.445,1.445,0,0,1-.111,1.276,2.461,2.461,0,0,1-2.158,1.167,3.294,3.294,0,0,1-1.1-.2c-.431-.153-.858-.318-1.27-.477a23.259,23.259,0,0,0-2.447-.844,8.393,8.393,0,0,0-2.179-.25c-.271,0-.566.008-.9.025-.368.019-.745.044-1.11.069-.772.052-1.571.105-2.367.105h-.142c-.616,0-1.232-.048-1.829-.089-.25-.018-.5-.035-.75-.049-1.711-.1-3.449-.2-5.131-.286l-.343-.019q-1.041-.056-2.083-.116c-.078,0-.159-.007-.24-.009l-.075,0c-.007.108-.006.229-.005.305,0,.093,0,.18,0,.254l-.006.125q-.048,1.042-.1,2.085l-.029.615c-.062,1.342-.127,2.729-.2,4.094-.032.581-.105,1.156-.177,1.712-.08.627-.156,1.218-.178,1.82a34.349,34.349,0,0,1-.351,4.171c-.065.41-.142.826-.215,1.229a21.245,21.245,0,0,0-.4,2.9,11.146,11.146,0,0,0,.092,1.638l.025.243a3.639,3.639,0,0,1-.169,1.681A2.317,2.317,0,0,1,19.716,60.291Zm.452-2.729a4.1,4.1,0,0,1-.2.432,2.477,2.477,0,0,1-.157.242l-.083.121a.679.679,0,0,0,.3-.056C20.1,58.261,20.21,58.11,20.167,57.563ZM10.3,20.549q.185,0,.37.007c1.2.049,2.417.163,3.591.272l.75.069a3.209,3.209,0,0,1,2.6,1.369,5.972,5.972,0,0,1,.712,2.79l.006.073c.041.495.065.994.088,1.477l.01.2q.036.754.07,1.507c.055,1.189.111,2.418.183,3.624.079,1.343.229,2.708.375,4.028.063.576.127,1.152.185,1.729.045.443.084.887.124,1.331.088.979.179,1.991.321,2.969.024.165.05.329.076.494.083.531.168,1.08.2,1.637a15.208,15.208,0,0,1-.007,1.557c-.006.167-.013.333-.018.5-.047,1.67-.039,2.948.027,4.143.054.975.173,1.922.3,2.911.049-.3.1-.588.152-.878s.1-.566.146-.848a31.632,31.632,0,0,0,.408-4.164c.023-.706.108-1.4.19-2.074.071-.581.138-1.129.169-1.689.073-1.3.135-2.634.2-3.919l.033-.707q.026-.546.048-1.093c.03-.71.062-1.444.1-2.168a1.783,1.783,0,0,1,1.2-1.6.959.959,0,0,1,.251-.034h.022a.81.81,0,0,1,.122.01l.124.01c.4.028.823.051,1.228.073l2.2.12q1.674.091,3.348.184c.332.019.662.04.993.06,1.078.067,2.192.137,3.28.137.462,0,.888-.012,1.3-.037.252-.015.5-.032.756-.05.707-.049,1.438-.1,2.168-.1.225,0,.445,0,.652.015a11.435,11.435,0,0,1,2.982.606c-.244-.107-.482-.219-.716-.329l-.318-.149a12.036,12.036,0,0,0-2.057-.658l-.208-.053c-1.482-.381-3.063-.728-4.975-1.091l-.4-.077c-.913-.175-1.857-.356-2.779-.441-.9-.083-1.8-.173-2.682-.26l-1.527-.151-1.179-.117c-.082-.008-.169-.013-.257-.017a3.488,3.488,0,0,1-.783-.1.97.97,0,0,1-.689-.711,21.154,21.154,0,0,1-.568-4.218,12.66,12.66,0,0,1,.2-2.194c.028-.164.051-.332.074-.5a7.712,7.712,0,0,1,.271-1.351,2.9,2.9,0,0,1,2.292-2.006c.508-.1,1.02-.167,1.544-.233,1.985-.25,4.006-.434,5.96-.611l1.117-.1c-.9-.108-1.807-.208-2.7-.277-.063,0-.131-.007-.2-.007-.192,0-.392.016-.6.033-.151.012-.3.024-.452.031-.842.039-1.68.067-2.536.095-.4.014-.811.022-1.219.03-1,.02-2.031.041-3.02.145-.059.02-.114.035-.158.046l-.079.021c-.183.053-.368.105-.553.155a11.48,11.48,0,0,1-1.382.3,4.163,4.163,0,0,1-.583.04,8.188,8.188,0,0,1-2.466-.5l-.17-.053c-.091.015-.176.023-.251.031l-.1.01c-.355.045-.7.076-1.09.109-1.025.088-2.065.159-3.071.228l-1.079.073c-.893.06-1.817.123-2.723.191l-.411.03a14.387,14.387,0,0,0-1.7.185c-.352.07-.71.144-1.079.225l.091-.011c.23-.027.462-.058.694-.088A19.209,19.209,0,0,1,10.3,20.549ZM43.735,35.592c.36.137.72.282,1.077.431a2.5,2.5,0,0,0,.867.239.561.561,0,0,0,.2-.034.785.785,0,0,0-.257-.18l-.436-.1C44.712,35.841,44.222,35.729,43.735,35.592Z"/>
        <path id="Контур_2" data-name="Контур 2" d="M45.986,34.783a18.48,18.48,0,0,1-3.3-.956,18.743,18.743,0,0,0-1.745-.746,44.93,44.93,0,0,0-4.647-1.157,63.063,63.063,0,0,0-6.926-1.087q-1.469-.143-2.936-.289c-.387-.038-.775-.077-1.16-.116l-.382-.04c-.065-.007-.2-.045-.066-.006l.247.241a18.949,18.949,0,0,1-.529-4.244,13.2,13.2,0,0,1,.257-2.073,5.15,5.15,0,0,1,.4-1.651c.349-.629,1.115-.72,1.768-.818.594-.09,1.191-.159,1.787-.224,3.112-.345,6.238-.571,9.349-.919.536-.06,1.072-.124,1.606-.208a2.858,2.858,0,0,0,.843-.21.552.552,0,0,0,.268-.457c.016-.375-.312-.547-.63-.646a15.834,15.834,0,0,0-2.548-.4c-1.7-.224-3.4-.427-5.1-.6a24.957,24.957,0,0,0-3.331.064c-1.633.058-3.268.089-4.9.182a7.158,7.158,0,0,0-1.544.3,8.956,8.956,0,0,1-1.31.285,4.59,4.59,0,0,1-1.773-.249c-.322-.092-1.01-.471-1.328-.284.108-.064.026-.014-.028,0s-.138.025-.208.034c-.4.058-.929.1-1.375.134-1.489.123-2.981.217-4.471.319-1.259.086-2.523.158-3.778.294a21.067,21.067,0,0,0-2.385.462c-1.393.314-2.774.674-4.155,1.035C1.173,20.962-.19,21.042-.416,22c-.127.54.2.722.667.776A16.555,16.555,0,0,0,3.8,22.561c1.529-.164,3.054-.362,4.583-.535.527-.06,1.054-.119,1.584-.152a20,20,0,0,1,3.125.189c.662.064,1.326.1,1.987.16a1.992,1.992,0,0,1,1.2.5,3.836,3.836,0,0,1,.715,2.5c.117,1.4.148,2.8.215,4.2.076,1.594.137,3.194.3,4.783.127,1.24.287,2.476.413,3.717.14,1.39.239,2.79.434,4.174.1.687.216,1.372.271,2.064a20.211,20.211,0,0,1-.03,2.171c-.04,1.4-.036,2.8.042,4.192.073,1.341.285,2.656.455,3.986a4.494,4.494,0,0,1-.573,3.3,1.057,1.057,0,0,0,.6,1.767,1.832,1.832,0,0,0,2.242-.893,3,3,0,0,0,.13-1.4,13.529,13.529,0,0,1-.119-1.968,36.718,36.718,0,0,1,.618-4.194,33.637,33.637,0,0,0,.344-4.1c.042-1.19.29-2.356.355-3.544.087-1.568.158-3.135.231-4.7q.052-1.106.1-2.211c.017-.36-.077-1.06.337-1.243l-.273.034a5.986,5.986,0,0,0,.932.071q1.04.062,2.08.116c1.826.1,3.651.2,5.477.3.848.049,1.7.13,2.547.137,1.195.01,2.39-.111,3.582-.172a10.563,10.563,0,0,1,3.28.246c1.3.344,2.507.89,3.768,1.337a2.013,2.013,0,0,0,2.5-.707c.474-.775-.558-1.707-1.26-1.915a.347.347,0,0,0-.189.668,1.619,1.619,0,0,1,.8.665c.184.283-.231.593-.474.688a2.161,2.161,0,0,1-1.563-.209q-.931-.389-1.881-.726a11.845,11.845,0,0,0-3.356-.759,33.094,33.094,0,0,0-3.507.134,48.159,48.159,0,0,1-5.65-.161c-1.759-.1-3.518-.192-5.276-.289-.5-.028-1.006-.053-1.51-.089l-.154-.013c-.033,0-.1-.016.045.007a.39.39,0,0,0-.193,0,1.184,1.184,0,0,0-.73,1.033c-.064,1.084-.1,2.17-.153,3.254-.073,1.545-.143,3.09-.229,4.632-.07,1.256-.318,2.487-.359,3.749a32.31,32.31,0,0,1-.416,4.243,29.245,29.245,0,0,0-.546,4.029,14.156,14.156,0,0,0,.143,1.775c.05.5.047,1.15-.452,1.428a1.4,1.4,0,0,1-1.347-.075c-.263-.208.315-.873.415-1.059a5.528,5.528,0,0,0,.373-3.334c-.173-1.341-.373-2.663-.448-4.015-.077-1.4-.067-2.8-.027-4.194.018-.668.067-1.335.025-2-.043-.7-.172-1.39-.273-2.081-.209-1.433-.3-2.887-.449-4.327-.194-1.93-.447-3.847-.561-5.782-.1-1.712-.171-3.425-.254-5.138-.027-.551-.051-1.1-.1-1.653a5.6,5.6,0,0,0-.625-2.587,2.638,2.638,0,0,0-2.118-1.077c-1.431-.13-2.873-.281-4.309-.339a21.91,21.91,0,0,0-3.453.293c-1.547.184-3.094.38-4.646.521-.593.053-1.189.1-1.785.108-.143,0-.425-.007-.489-.016A.949.949,0,0,1,.1,22.046c.091.03-.011-.022.073.045.139.112.056.084.139-.075s.312-.192.453-.234c.29-.086.587-.155.88-.231.718-.187,1.435-.376,2.156-.559,1.382-.353,2.77-.683,4.17-.961a19.286,19.286,0,0,1,2.192-.225c1.177-.089,2.355-.166,3.533-.246,1.111-.077,2.223-.151,3.334-.246.356-.031.712-.062,1.067-.107a1.657,1.657,0,0,0,.623-.134l-.272.035a7.553,7.553,0,0,0,3.2.573,10.846,10.846,0,0,0,1.3-.286c.182-.049.363-.1.545-.153.064-.018.332-.087.286-.082,1.435-.155,2.9-.136,4.346-.184.843-.027,1.685-.055,2.527-.094A11.235,11.235,0,0,1,32,18.825c1.514.116,3.025.315,4.53.5.876.109,1.752.224,2.626.357.2.031.409.063.613.1a2.783,2.783,0,0,1,.322.083c.165.051-.038.01.014-.1a.168.168,0,0,1,.106-.1,1.479,1.479,0,0,1-.175.051,22.644,22.644,0,0,1-3.076.4c-3.1.316-6.212.537-9.3.927-.5.063-1,.129-1.5.226a2.273,2.273,0,0,0-1.811,1.586,12.407,12.407,0,0,0-.323,1.763,11.9,11.9,0,0,0-.2,2.087,20.538,20.538,0,0,0,.554,4.1.345.345,0,0,0,.246.241,5.455,5.455,0,0,0,.926.1l1.985.2c1.133.112,2.265.226,3.4.33,1.089.1,2.171.324,3.244.527,1.682.319,3.358.674,5.016,1.1a13.8,13.8,0,0,1,2.375.75,17.41,17.41,0,0,0,1.792.774c.791.265,1.616.432,2.429.621.445.1.633-.563.19-.667Zm0,0"/>
        <path id="Контур_3" data-name="Контур 3" d="M21.384,16.646a4.6,4.6,0,0,1-2.59-.778,4.65,4.65,0,0,1-1.762-5.7,4.831,4.831,0,0,1,4.423-2.881,4.678,4.678,0,0,1,.932.094,4.74,4.74,0,0,1,3.837,4.578q0,.047,0,.091a4.614,4.614,0,0,1-1.357,3.187,5.012,5.012,0,0,1-3.48,1.405Zm.07-7.418a2.975,2.975,0,0,0-1.991.82,2.58,2.58,0,0,0-.823,1.915,2.823,2.823,0,0,0,2.752,2.755h.042a2.818,2.818,0,0,0,2.814-2.744A2.822,2.822,0,0,0,21.5,9.228Z"/>
        <path id="Контур_4" data-name="Контур 4" d="M24.882,11.972a3.439,3.439,0,0,1-6.877,0,3.439,3.439,0,0,1,6.877,0,.354.354,0,0,0,.707,0,4.135,4.135,0,0,0-3.332-3.979,4.2,4.2,0,0,0-4.639,2.416,4.06,4.06,0,0,0,1.536,4.947,4.255,4.255,0,0,0,5.26-.555,4.042,4.042,0,0,0,1.173-2.83.354.354,0,0,0-.706,0Zm0,0"/>
      </g>
    </g>
    <path id="Color_Overlay" data-name="Color Overlay" d="M1103.93,3160.887a1.669,1.669,0,0,1-.928-2.723,3.815,3.815,0,0,0,.459-2.865c-.039-.306-.08-.612-.121-.917-.138-1.011-.28-2.057-.338-3.112-.073-1.313-.086-2.7-.043-4.244.005-.2.016-.4.024-.6a12.019,12.019,0,0,0,.009-1.5c-.039-.487-.111-.967-.187-1.474q-.041-.276-.08-.553c-.138-.978-.229-1.974-.317-2.937-.039-.42-.077-.841-.12-1.26-.064-.626-.138-1.264-.208-1.88-.07-.6-.142-1.222-.205-1.836-.142-1.4-.208-2.826-.273-4.2l-.029-.614c-.02-.412-.035-.826-.053-1.24-.039-.967-.078-1.967-.159-2.938-.008-.09-.014-.182-.022-.276a3,3,0,0,0-.5-1.832,1.38,1.38,0,0,0-.823-.328c-.3-.028-.6-.05-.908-.072-.353-.026-.719-.053-1.081-.088-.2-.019-.4-.041-.6-.061a18.864,18.864,0,0,0-1.95-.14c-.163,0-.322,0-.473.014-.529.032-1.072.095-1.55.149-.65.074-1.3.152-1.947.229-.866.1-1.758.211-2.64.306-.229.025-.462.053-.7.083a17.935,17.935,0,0,1-2.159.176,7.385,7.385,0,0,1-.832-.045c-.042,0-.1-.012-.177-.025v-2.71a5.767,5.767,0,0,1,1.361-.4c.16-.033.312-.064.437-.1,1.353-.353,2.751-.718,4.177-1.039l.328-.075a18.23,18.23,0,0,1,2.129-.4c1.033-.112,2.081-.181,3.1-.248l1.671-.113c1.148-.077,2.335-.157,3.5-.254l.2-.016c.383-.031.815-.067,1.134-.114.049-.006.092-.012.133-.02a.739.739,0,0,1,.162-.043,1.179,1.179,0,0,1,.255-.027,2.937,2.937,0,0,1,1.041.27c.095.037.193.075.243.09a4.862,4.862,0,0,0,1.292.242,2.065,2.065,0,0,0,.228-.013,8.628,8.628,0,0,0,1.215-.266,7.722,7.722,0,0,1,1.679-.321c1.138-.065,2.294-.1,3.412-.134q.749-.023,1.5-.049c.3-.011.616-.029.917-.047.492-.03,1-.059,1.511-.059.357,0,.682.014.989.045,1.607.159,3.281.355,5.119.6.211.028.428.052.659.076a10.561,10.561,0,0,1,2,.344c.969.3,1.087.923,1.073,1.265a1.175,1.175,0,0,1-.613.983,3.115,3.115,0,0,1-.957.259l-.076.012c-.562.088-1.118.154-1.633.211-1.58.176-3.189.324-4.742.467-1.513.139-3.075.282-4.607.452-.537.059-1.16.13-1.763.22l-.076.012c-.633.094-1.058.179-1.23.489a3.258,3.258,0,0,0-.277,1.082c-.019.127-.038.254-.059.377l-.02.113a11.74,11.74,0,0,0-.228,1.866,16.808,16.808,0,0,0,.377,3.444c.313.032.627.063.94.094q1.47.147,2.938.289a63.6,63.6,0,0,1,7,1.1,45.285,45.285,0,0,1,4.714,1.175,11.424,11.424,0,0,1,1.3.54c.166.076.332.154.5.229a15.494,15.494,0,0,0,2.81.832l.316.072c.027.005.055.012.082.02a1.028,1.028,0,0,1,.129.041,2.851,2.851,0,0,1,1.622,1.516,1.6,1.6,0,0,1,.1.528v.017a1.418,1.418,0,0,1-.209.731,2.463,2.463,0,0,1-2.158,1.167,3.292,3.292,0,0,1-1.1-.2c-.43-.152-.859-.318-1.27-.477a23.5,23.5,0,0,0-2.447-.844,8.411,8.411,0,0,0-2.179-.25c-.272,0-.566.009-.9.025-.366.019-.744.044-1.111.068-.772.052-1.57.105-2.366.105h-.142c-.616-.005-1.233-.048-1.83-.089-.249-.018-.5-.035-.75-.05-1.709-.1-3.45-.2-5.13-.286l-.343-.019c-.7-.037-1.389-.074-2.083-.115-.078,0-.159-.007-.241-.009l-.074,0c-.006.109-.006.229-.006.305,0,.094,0,.18,0,.255l-.005.124q-.049,1.042-.1,2.085l-.029.615c-.062,1.341-.128,2.729-.2,4.094-.031.581-.106,1.156-.176,1.711-.08.627-.157,1.219-.178,1.821a34.417,34.417,0,0,1-.351,4.17c-.065.41-.141.826-.215,1.229a21.367,21.367,0,0,0-.4,2.9,11.266,11.266,0,0,0,.093,1.638l.025.243a3.627,3.627,0,0,1-.169,1.681,2.315,2.315,0,0,1-2.234,1.38A2.754,2.754,0,0,1,1103.93,3160.887Zm1.039-2.184a2.665,2.665,0,0,1-.158.242c-.022.031-.051.073-.083.121a.685.685,0,0,0,.3-.056c.072-.041.184-.192.141-.739A4.225,4.225,0,0,1,1104.97,3158.7Zm-9.3-37.437c1.2.049,2.417.162,3.591.272l.75.069a3.213,3.213,0,0,1,2.6,1.37,5.985,5.985,0,0,1,.712,2.79l.005.073c.04.495.065.994.088,1.478l.01.2q.036.753.07,1.507c.055,1.188.112,2.417.184,3.624.079,1.343.229,2.708.374,4.028.063.576.126,1.152.184,1.729.046.443.085.887.125,1.331.087.979.178,1.992.321,2.969.024.165.049.33.075.494.084.531.169,1.08.2,1.637a14.986,14.986,0,0,1-.007,1.557c-.005.167-.013.333-.017.5-.047,1.67-.039,2.948.026,4.144.055.975.174,1.921.3,2.911.049-.3.1-.588.152-.878s.1-.565.147-.848a31.617,31.617,0,0,0,.407-4.163c.023-.707.108-1.4.191-2.073.071-.582.139-1.13.17-1.69.073-1.3.135-2.633.2-3.918l.032-.708q.026-.547.049-1.094c.031-.71.062-1.444.105-2.168a1.782,1.782,0,0,1,1.2-1.6.934.934,0,0,1,.25-.034h.022a.868.868,0,0,1,.122.01l.125.011c.4.028.822.05,1.228.073l2.2.12q1.674.09,3.349.184c.331.019.661.04.993.06,1.076.068,2.191.138,3.28.138.461,0,.887-.013,1.3-.037.251-.015.5-.032.755-.05.707-.049,1.438-.1,2.168-.1.225,0,.445.006.653.015a11.407,11.407,0,0,1,2.981.606c-.244-.107-.482-.219-.715-.329l-.319-.149a11.967,11.967,0,0,0-2.057-.657l-.207-.053c-1.482-.382-3.064-.728-4.975-1.091l-.4-.077c-.914-.175-1.859-.355-2.779-.441-.9-.083-1.8-.173-2.682-.26l-1.527-.151-1.179-.117c-.084-.008-.17-.013-.257-.017a3.505,3.505,0,0,1-.783-.1.972.972,0,0,1-.689-.711,21.232,21.232,0,0,1-.567-4.218,12.742,12.742,0,0,1,.2-2.194c.027-.164.051-.331.073-.5a7.767,7.767,0,0,1,.272-1.351,2.9,2.9,0,0,1,2.291-2.006c.508-.1,1.02-.167,1.544-.232,1.984-.25,4.007-.434,5.961-.611l1.117-.1c-.9-.109-1.806-.208-2.7-.277-.063,0-.13-.007-.2-.007-.193,0-.392.016-.6.033-.152.012-.3.024-.452.031-.842.039-1.68.067-2.535.094-.4.013-.812.021-1.219.03-1,.021-2.032.041-3.02.145-.059.021-.114.035-.158.047l-.077.021c-.184.053-.369.106-.553.156a11.27,11.27,0,0,1-1.382.3,4.135,4.135,0,0,1-.584.041,8.155,8.155,0,0,1-2.465-.5l-.171-.053c-.09.015-.176.023-.251.031l-.1.01c-.356.045-.7.075-1.089.109-1.026.088-2.066.159-3.071.229l-1.079.074c-.894.06-1.818.123-2.723.191-.136.011-.274.021-.411.03a14.555,14.555,0,0,0-1.7.186c-.351.069-.709.144-1.079.224l.091-.011c.23-.027.462-.057.694-.088a19.2,19.2,0,0,1,2.491-.215C1095.422,3121.259,1095.546,3121.26,1095.67,3121.266Zm34.142,15.466a2.491,2.491,0,0,0,.867.239.563.563,0,0,0,.2-.033.771.771,0,0,0-.257-.18l-.436-.1c-.478-.108-.968-.219-1.455-.356C1129.095,3136.438,1129.455,3136.582,1129.812,3136.732Zm-23.428-19.377a4.6,4.6,0,0,1-2.59-.779,4.651,4.651,0,0,1-1.762-5.7,4.833,4.833,0,0,1,4.424-2.881,4.677,4.677,0,0,1,.931.094,4.741,4.741,0,0,1,3.838,4.578.751.751,0,0,1,0,.091,4.611,4.611,0,0,1-1.358,3.187,5,5,0,0,1-3.478,1.406Zm-1.922-6.6a2.574,2.574,0,0,0-.823,1.914,2.823,2.823,0,0,0,2.752,2.755h.04a2.745,2.745,0,1,0,.063-5.489h-.041A2.979,2.979,0,0,0,1104.463,3110.757Z" fill="#fff"/>
  </g>
</svg>
